<?xml version="1.0" encoding="UTF-8" standalone="no"?>
<svg
   xmlns:dc="http://purl.org/dc/elements/1.1/"
   xmlns:cc="http://creativecommons.org/ns#"
   xmlns:rdf="http://www.w3.org/1999/02/22-rdf-syntax-ns#"
   xmlns:svg="http://www.w3.org/2000/svg"
   xmlns="http://www.w3.org/2000/svg"
   xmlns:sodipodi="http://sodipodi.sourceforge.net/DTD/sodipodi-0.dtd"
   xmlns:inkscape="http://www.inkscape.org/namespaces/inkscape"
   version="1.1"
   id="body"
   width="590"
   height="350"
   viewBox="0 0 0.76822916 0.45572916"
   preserveAspectRatio="none"
   sodipodi:version="0.32"
   inkscape:version="0.92.2 2405546, 2018-03-11"
   sodipodi:docname="directivity2.svg"
   inkscape:output_extension="org.inkscape.output.svg.inkscape"
   inkscape:export-filename="/home/jpc/Documents/Projects/HybridReverb2/Source/resources/directivity2.png"
   inkscape:export-xdpi="96"
   inkscape:export-ydpi="96">
  <metadata
     id="metadata96">
    <rdf:RDF>
      <cc:Work
         rdf:about="">
        <dc:format>image/svg+xml</dc:format>
        <dc:type
           rdf:resource="http://purl.org/dc/dcmitype/StillImage" />
        <dc:title>SVG drawing</dc:title>
      </cc:Work>
    </rdf:RDF>
  </metadata>
  <defs
     id="defs94">
    <inkscape:perspective
       sodipodi:type="inkscape:persp3d"
       inkscape:vp_x="0 : 360 : 1"
       inkscape:vp_y="0 : 999.99998 : 0"
       inkscape:vp_z="719.99999 : 360 : 1"
       inkscape:persp3d-origin="360 : 240 : 1"
       id="perspective98" />
  </defs>
  <sodipodi:namedview
     inkscape:window-height="744"
     inkscape:window-width="1246"
     inkscape:pageshadow="2"
     inkscape:pageopacity="0.0"
     guidetolerance="10.0"
     gridtolerance="10.0"
     objecttolerance="10.0"
     borderopacity="1.0"
     bordercolor="#666666"
     pagecolor="#ffffff"
     id="base"
     showgrid="false"
     inkscape:zoom="0.64722222"
     inkscape:cx="118.52134"
     inkscape:cy="279.41567"
     inkscape:window-x="24"
     inkscape:window-y="27"
     inkscape:current-layer="body"
     inkscape:window-maximized="0"
     units="px"
     fit-margin-top="0"
     fit-margin-left="0"
     fit-margin-right="0"
     fit-margin-bottom="0" />
  <title
     id="title3">SVG drawing</title>
  <desc
     id="desc5">This was produced by version 4.2 of GNU libplot, a free library for exporting 2-D vector graphics.</desc>
  <g
     id="g944"
     transform="translate(-0.0363577,-0.03065342)">
    <polyline
       transform="matrix(0.0044793,0,0,-0.00441518,0.03600474,0.4872169)"
       points="91.449,102.82 93.719,100.56 95.988,102.82 98.254,100.56 100.52,102.82 102.79,100.56 105.06,102.82 107.32,100.56 109.59,102.82 111.86,100.56 114.13,102.82 116.39,100.56 118.66,102.82 120.93,100.56 123.2,102.82 125.46,100.56 127.73,102.82 130,100.56 132.27,102.82 134.54,100.56 136.8,102.82 139.07,100.56 141.34,102.82 143.6,100.56 145.88,102.82 148.14,100.56 150.41,102.82 152.68,100.56 154.95,102.82 157.21,100.56 159.48,102.82 161.75,100.56 164.02,102.82 166.29,100.56 168.55,102.82 "
       id="polyline9"
       style="font-style:normal;font-variant:normal;font-weight:normal;font-stretch:normal;letter-spacing:normal;word-spacing:normal;text-anchor:start;fill:none;fill-opacity:1;stroke:#000000;stroke-width:0.47242999;stroke-linecap:butt;stroke-linejoin:miter;stroke-miterlimit:10.43299961;stroke-dasharray:none;stroke-dashoffset:0;stroke-opacity:1" />
    <polyline
       transform="matrix(0.0044793,0,0,-0.00441518,0.03600474,0.4872169)"
       points="170.82,102.82 168.55,100.56 170.82,98.285 168.55,96.02 170.82,93.75 168.55,91.484 170.82,89.215 168.55,86.949 170.82,84.68 168.55,82.414 170.82,80.145 168.55,77.879 170.82,75.609 168.55,73.344 170.82,71.074 168.55,68.809 170.82,66.539 168.55,64.273 170.82,62.004 168.55,59.738 170.82,57.469 168.55,55.203 170.82,52.934 168.55,50.668 170.82,48.398 168.55,46.133 170.82,43.863 168.55,41.594 170.82,39.328 168.55,37.059 170.82,34.793 168.55,32.523 170.82,30.258 168.55,27.988 170.82,25.723 168.55,23.453 170.82,21.188 168.55,18.918 170.82,16.652 168.55,14.383 170.82,12.117 168.55,9.8477 170.82,7.582 168.55,5.3125 170.82,3.0469 "
       id="polyline11"
       style="font-style:normal;font-variant:normal;font-weight:normal;font-stretch:normal;letter-spacing:normal;word-spacing:normal;text-anchor:start;fill:none;fill-opacity:1;stroke:#000000;stroke-width:0.47242999;stroke-linecap:butt;stroke-linejoin:miter;stroke-miterlimit:10.43299961;stroke-dasharray:none;stroke-dashoffset:0;stroke-opacity:1" />
    <polyline
       transform="matrix(0.0044793,0,0,-0.00441518,0.03600474,0.4872169)"
       points="170.82,0.77734 168.55,3.0469 166.29,0.77734 164.02,3.0469 161.75,0.77734 159.48,3.0469 157.21,0.77734 154.95,3.0469 152.68,0.77734 150.41,3.0469 148.14,0.77734 145.88,3.0469 143.6,0.77734 141.34,3.0469 139.07,0.77734 136.8,3.0469 134.54,0.77734 132.27,3.0469 130,0.77734 127.73,3.0469 125.46,0.77734 123.2,3.0469 120.93,0.77734 118.66,3.0469 116.39,0.77734 114.13,3.0469 111.86,0.77734 109.59,3.0469 107.32,0.77734 105.06,3.0469 102.79,0.77734 100.52,3.0469 98.254,0.77734 95.988,3.0469 93.719,0.77734 "
       id="polyline13"
       style="font-style:normal;font-variant:normal;font-weight:normal;font-stretch:normal;letter-spacing:normal;word-spacing:normal;text-anchor:start;fill:none;fill-opacity:1;stroke:#000000;stroke-width:0.47242999;stroke-linecap:butt;stroke-linejoin:miter;stroke-miterlimit:10.43299961;stroke-dasharray:none;stroke-dashoffset:0;stroke-opacity:1" />
    <polyline
       transform="matrix(0.0044793,0,0,-0.00441518,0.03600474,0.4872169)"
       points="91.449,0.77734 93.719,3.0469 91.449,5.3125 93.719,7.582 91.449,9.8477 93.719,12.117 91.449,14.383 93.719,16.652 91.449,18.918 93.719,21.188 91.449,23.453 93.719,25.723 91.449,27.988 93.719,30.258 91.449,32.523 93.719,34.793 91.449,37.059 93.719,39.328 91.449,41.594 93.719,43.863 91.449,46.133 93.719,48.398 91.449,50.668 93.719,52.934 91.449,55.203 93.719,57.469 91.449,59.738 93.719,62.004 91.449,64.273 93.719,66.539 91.449,68.809 93.719,71.074 91.449,73.344 93.719,75.609 91.449,77.879 93.719,80.145 91.449,82.414 93.719,84.68 91.449,86.949 93.719,89.215 91.449,91.484 93.719,93.75 91.449,96.02 93.719,98.285 91.449,100.56 "
       id="polyline15"
       style="font-style:normal;font-variant:normal;font-weight:normal;font-stretch:normal;letter-spacing:normal;word-spacing:normal;text-anchor:start;fill:none;fill-opacity:1;stroke:#000000;stroke-width:0.47242999;stroke-linecap:butt;stroke-linejoin:miter;stroke-miterlimit:10.43299961;stroke-dasharray:none;stroke-dashoffset:0;stroke-opacity:1" />
    <path
       d="m 0.64371137,0.26100957 v 0.001029 l -8.959e-5,0.001016 -1.3437e-4,0.001002 -1.7918e-4,9.8459e-4 -2.2396e-4,9.7134e-4 -2.6876e-4,9.4926e-4 -3.1355e-4,9.316e-4 -3.5834e-4,9.0953e-4 -4.4793e-4,8.8304e-4 -4.4793e-4,8.6537e-4 -4.4793e-4,8.3889e-4 -5.3752e-4,8.1239e-4 -5.8231e-4,7.859e-4 -5.8231e-4,7.55e-4 -6.7189e-4,7.285e-4 -6.719e-4,6.9318e-4 -6.7189e-4,6.6228e-4 -7.6148e-4,6.3137e-4 -7.6149e-4,5.9605e-4 -8.0627e-4,5.5631e-4 -8.0627e-4,5.21e-4 -8.5107e-4,4.8125e-4 -8.9586e-4,4.4152e-4 -8.9586e-4,4.0178e-4 -8.9586e-4,3.6204e-4 -9.4065e-4,3.1348e-4 -9.8545e-4,2.6933e-4 -9.8544e-4,2.2517e-4 -9.8545e-4,1.7661e-4 -0.00103,1.2362e-4 -0.00103,7.948e-5 -0.00103,2.649e-5 c -0.011243,0 -0.020336,-0.008967 -0.020336,-0.0200228 0,-0.0110556 0.009093,-0.0200273 0.020336,-0.0200273 0.0111982,0 0.0202912,0.008972 0.0202905,0.0200267 z"
       id="path17"
       style="font-style:normal;font-variant:normal;font-weight:normal;font-stretch:normal;letter-spacing:normal;word-spacing:normal;text-anchor:start;fill:none;fill-opacity:1;stroke:#000000;stroke-width:0.00210095;stroke-linecap:butt;stroke-linejoin:miter;stroke-miterlimit:10.43299961;stroke-dasharray:none;stroke-dashoffset:0;stroke-opacity:1"
       inkscape:connector-curvature="0" />
    <line
       x1="0.62821305"
       y1="0.24460717"
       x2="0.63381213"
       y2="0.24571097"
       id="line19"
       style="font-style:normal;font-variant:normal;font-weight:normal;font-stretch:normal;letter-spacing:normal;word-spacing:normal;text-anchor:start;fill:none;fill-opacity:1;stroke:#000000;stroke-width:0.00210095;stroke-linecap:butt;stroke-linejoin:miter;stroke-miterlimit:10.43299961;stroke-dasharray:none;stroke-dashoffset:0;stroke-opacity:1" />
    <polyline
       transform="matrix(0.0044793,0,0,-0.00441518,0.03600474,0.4872169)"
       points="129.75,55.578 129.75,55.641 129.88,55.957 130.13,56.523 130.38,57.027 130.7,57.531 131.14,57.723 131.51,57.594 131.83,57.152 132.08,56.648 132.21,56.145 132.33,55.832 132.33,55.77 "
       id="polyline21"
       style="font-style:normal;font-variant:normal;font-weight:normal;font-stretch:normal;letter-spacing:normal;word-spacing:normal;text-anchor:start;fill:none;fill-opacity:1;stroke:#000000;stroke-width:0.47242999;stroke-linecap:butt;stroke-linejoin:bevel;stroke-miterlimit:10.43299961;stroke-dasharray:none;stroke-dashoffset:0;stroke-opacity:1" />
    <polyline
       transform="matrix(0.0044793,0,0,-0.00441518,0.03600474,0.4872169)"
       points="126.73,52.051 126.66,52.18 126.54,52.43 126.35,52.746 126.16,52.996 125.97,53.188 125.78,53.25 125.66,53.059 125.53,52.492 125.46,51.926 125.46,51.359 125.53,50.855 125.53,50.227 125.66,49.66 125.78,49.469 125.97,49.469 126.09,49.66 126.29,49.91 126.41,50.164 126.54,50.414 126.6,50.539 "
       id="polyline23"
       style="font-style:normal;font-variant:normal;font-weight:normal;font-stretch:normal;letter-spacing:normal;word-spacing:normal;text-anchor:start;fill:none;fill-opacity:1;stroke:#000000;stroke-width:0.47242999;stroke-linecap:butt;stroke-linejoin:bevel;stroke-miterlimit:10.43299961;stroke-dasharray:none;stroke-dashoffset:0;stroke-opacity:1" />
    <polyline
       transform="matrix(0.0044793,0,0,-0.00441518,0.03600474,0.4872169)"
       points="135.67,52.051 135.73,52.18 135.8,52.367 135.92,52.617 136.05,52.871 136.18,53.059 136.3,53.059 136.43,52.871 136.55,52.305 136.55,51.738 136.61,51.172 136.61,50.668 136.55,50.098 136.49,49.531 136.36,49.344 136.24,49.344 136.05,49.531 135.92,49.785 135.8,50.035 135.67,50.227 135.6,50.352 "
       id="polyline25"
       style="font-style:normal;font-variant:normal;font-weight:normal;font-stretch:normal;letter-spacing:normal;word-spacing:normal;text-anchor:start;fill:none;fill-opacity:1;stroke:#000000;stroke-width:0.47242999;stroke-linecap:butt;stroke-linejoin:bevel;stroke-miterlimit:10.43299961;stroke-dasharray:none;stroke-dashoffset:0;stroke-opacity:1" />
    <line
       x1="0.61128122"
       y1="0.24628054"
       x2="0.6166116"
       y2="0.24432902"
       id="line27"
       style="font-style:normal;font-variant:normal;font-weight:normal;font-stretch:normal;letter-spacing:normal;word-spacing:normal;text-anchor:start;fill:none;fill-opacity:1;stroke:#000000;stroke-width:0.00210095;stroke-linecap:butt;stroke-linejoin:miter;stroke-miterlimit:10.43299961;stroke-dasharray:none;stroke-dashoffset:0;stroke-opacity:1" />
    <polygon
       transform="matrix(0.0044793,0,0,-0.00441518,0.03600474,0.4872169)"
       points="51.641,35.801 49.941,35.359 48.238,35.043 46.602,34.918 44.965,34.918 43.391,35.043 41.879,35.297 40.43,35.801 39.105,36.367 37.848,37.059 36.711,37.879 35.703,38.824 34.887,39.895 34.258,41.09 33.816,42.352 33.562,43.609 33.688,44.996 34.066,46.445 34.824,47.895 36.082,49.281 37.91,50.602 40.43,51.801 41.625,53.438 43.074,54.949 44.84,56.211 46.793,57.152 48.934,57.785 51.199,57.973 53.406,57.848 55.484,57.281 57.438,56.336 59.137,55.074 60.523,53.562 61.531,51.801 62.16,49.91 62.414,47.895 62.285,45.941 61.781,44.051 60.84,42.289 59.578,40.715 58.129,39.391 56.617,38.258 54.98,37.25 53.344,36.43 "
       id="polygon29"
       style="font-style:normal;font-variant:normal;font-weight:normal;font-stretch:normal;letter-spacing:normal;word-spacing:normal;text-anchor:start;fill:none;fill-opacity:1;stroke:#000000;stroke-width:0.47242999;stroke-linecap:butt;stroke-linejoin:miter;stroke-miterlimit:10.43299961;stroke-dasharray:3.7794;stroke-dashoffset:0;stroke-opacity:1" />
    <polygon
       transform="matrix(0.0044793,0,0,-0.00441518,0.03600474,0.4872169)"
       points="50.824,52.684 48.809,51.801 46.664,51.234 44.523,51.105 42.383,51.297 40.43,51.801 39.422,53.941 38.727,56.523 38.414,59.359 38.602,62.258 39.23,65.219 40.43,67.801 42.004,70.004 43.895,71.516 45.973,72.336 47.988,72.586 49.941,72.207 51.766,71.391 53.406,70.32 54.789,68.871 55.863,67.234 56.617,65.344 56.934,63.391 56.871,61.312 56.367,59.234 55.484,57.281 54.223,55.516 52.648,53.941 "
       id="polygon31"
       style="font-style:normal;font-variant:normal;font-weight:normal;font-stretch:normal;letter-spacing:normal;word-spacing:normal;text-anchor:start;fill:none;fill-opacity:1;stroke:#000000;stroke-width:0.47242999;stroke-linecap:butt;stroke-linejoin:miter;stroke-miterlimit:10.43299961;stroke-dasharray:3.7794;stroke-dashoffset:0;stroke-opacity:1" />
    <polygon
       transform="matrix(0.0044793,0,0,-0.00441518,0.03600474,0.4872169)"
       points="41.625,65.219 42.258,62.258 42.445,59.359 42.129,56.523 41.438,53.941 40.43,51.801 38.477,51.297 36.398,51.105 34.258,51.234 32.113,51.801 30.098,52.684 28.273,53.941 26.633,55.516 25.375,57.281 24.492,59.234 23.988,61.312 23.926,63.391 24.305,65.344 25.059,67.234 26.129,68.871 27.516,70.32 29.09,71.391 30.918,72.207 32.871,72.586 34.949,72.336 36.965,71.516 38.855,70.004 40.43,67.801 "
       id="polygon33"
       style="font-style:normal;font-variant:normal;font-weight:normal;font-stretch:normal;letter-spacing:normal;word-spacing:normal;text-anchor:start;fill:none;fill-opacity:1;stroke:#000000;stroke-width:0.47242999;stroke-linecap:butt;stroke-linejoin:miter;stroke-miterlimit:10.43299961;stroke-dasharray:3.7794;stroke-dashoffset:0;stroke-opacity:1" />
    <polygon
       transform="matrix(0.0044793,0,0,-0.00441518,0.03600474,0.4872169)"
       points="47.105,42.352 46.664,41.09 45.973,39.895 45.152,38.824 44.145,37.879 43.012,37.059 41.816,36.367 40.43,35.801 38.98,35.297 37.469,35.043 35.895,34.918 34.32,34.918 32.617,35.043 30.918,35.359 29.281,35.801 27.578,36.43 25.941,37.25 24.305,38.258 22.73,39.391 21.281,40.715 20.02,42.289 19.137,44.051 18.633,45.941 18.508,47.895 18.762,49.91 19.391,51.801 20.398,53.562 21.785,55.074 23.422,56.336 25.375,57.281 27.516,57.848 29.723,57.973 31.926,57.785 34.066,57.152 36.02,56.211 37.785,54.949 39.297,53.438 40.43,51.801 42.949,50.602 44.777,49.281 46.035,47.895 46.793,46.445 47.23,44.996 47.297,43.609 "
       id="polygon35"
       style="font-style:normal;font-variant:normal;font-weight:normal;font-stretch:normal;letter-spacing:normal;word-spacing:normal;text-anchor:start;fill:none;fill-opacity:1;stroke:#000000;stroke-width:0.47242999;stroke-linecap:butt;stroke-linejoin:miter;stroke-miterlimit:10.43299961;stroke-dasharray:3.7794;stroke-dashoffset:0;stroke-opacity:1" />
    <polygon
       transform="matrix(0.0044793,0,0,-0.00441518,0.03600474,0.4872169)"
       points="0.74609,102.82 0.74609,0.77734 80.113,0.77734 80.113,102.82 "
       id="polygon37"
       style="font-style:normal;font-variant:normal;font-weight:normal;font-stretch:normal;letter-spacing:normal;word-spacing:normal;text-anchor:start;fill:none;fill-opacity:1;stroke:#000000;stroke-width:0.47242999;stroke-linecap:butt;stroke-linejoin:miter;stroke-miterlimit:10.43299961;stroke-dasharray:none;stroke-dashoffset:0;stroke-opacity:1" />
    <line
       x1="0.13584386"
       y1="0.11974145"
       x2="0.14599395"
       y2="0.1372609"
       id="line39"
       style="font-style:normal;font-variant:normal;font-weight:normal;font-stretch:normal;letter-spacing:normal;word-spacing:normal;text-anchor:start;fill:none;fill-opacity:1;stroke:#000000;stroke-width:0.00210095;stroke-linecap:butt;stroke-linejoin:miter;stroke-miterlimit:10.43299961;stroke-dasharray:none;stroke-dashoffset:0;stroke-opacity:1" />
    <line
       x1="0.13217083"
       y1="0.13364045"
       x2="0.14994918"
       y2="0.12361801"
       id="line41"
       style="font-style:normal;font-variant:normal;font-weight:normal;font-stretch:normal;letter-spacing:normal;word-spacing:normal;text-anchor:start;fill:none;fill-opacity:1;stroke:#000000;stroke-width:0.00210095;stroke-linecap:butt;stroke-linejoin:miter;stroke-miterlimit:10.43299961;stroke-dasharray:none;stroke-dashoffset:0;stroke-opacity:1" />
    <line
       x1="0.29835734"
       y1="0.11974145"
       x2="0.28819379"
       y2="0.1372609"
       id="line43"
       style="font-style:normal;font-variant:normal;font-weight:normal;font-stretch:normal;letter-spacing:normal;word-spacing:normal;text-anchor:start;fill:none;fill-opacity:1;stroke:#000000;stroke-width:0.00210095;stroke-linecap:butt;stroke-linejoin:miter;stroke-miterlimit:10.43299961;stroke-dasharray:none;stroke-dashoffset:0;stroke-opacity:1" />
    <line
       x1="0.28453422"
       y1="0.12361801"
       x2="0.30203485"
       y2="0.13364045"
       id="line45"
       style="font-style:normal;font-variant:normal;font-weight:normal;font-stretch:normal;letter-spacing:normal;word-spacing:normal;text-anchor:start;fill:none;fill-opacity:1;stroke:#000000;stroke-width:0.00210095;stroke-linecap:butt;stroke-linejoin:miter;stroke-miterlimit:10.43299961;stroke-dasharray:none;stroke-dashoffset:0;stroke-opacity:1" />
    <polyline
       transform="matrix(0.0044793,0,0,-0.00441518,0.03600474,0.4872169)"
       points="108.46,41.156 111.36,39.77 108.27,48.273 106.88,45.375 108.46,41.156 105.25,39.957 103.73,44.242 106.88,45.375 "
       id="polyline47"
       style="font-style:normal;font-variant:normal;font-weight:normal;font-stretch:normal;letter-spacing:normal;word-spacing:normal;text-anchor:start;fill:none;fill-opacity:1;stroke:#000000;stroke-width:0.47242999;stroke-linecap:butt;stroke-linejoin:miter;stroke-miterlimit:10.43299961;stroke-dasharray:none;stroke-dashoffset:0;stroke-opacity:1" />
    <polyline
       transform="matrix(0.0044793,0,0,-0.00441518,0.03600474,0.4872169)"
       points="116.71,72.273 115.83,69.184 123.7,73.656 120.62,74.539 116.71,72.273 115.01,75.168 118.91,77.438 120.62,74.539 "
       id="polyline49"
       style="font-style:normal;font-variant:normal;font-weight:normal;font-stretch:normal;letter-spacing:normal;word-spacing:normal;text-anchor:start;fill:none;fill-opacity:1;stroke:#000000;stroke-width:0.47242999;stroke-linecap:butt;stroke-linejoin:miter;stroke-miterlimit:10.43299961;stroke-dasharray:none;stroke-dashoffset:0;stroke-opacity:1" />
    <polyline
       transform="matrix(0.0044793,0,0,-0.00441518,0.03600474,0.4872169)"
       points="141.65,74.539 138.5,73.656 146.38,69.184 145.56,72.273 141.65,74.539 143.35,77.438 147.26,75.168 145.56,72.273 "
       id="polyline51"
       style="font-style:normal;font-variant:normal;font-weight:normal;font-stretch:normal;letter-spacing:normal;word-spacing:normal;text-anchor:start;fill:none;fill-opacity:1;stroke:#000000;stroke-width:0.47242999;stroke-linecap:butt;stroke-linejoin:miter;stroke-miterlimit:10.43299961;stroke-dasharray:none;stroke-dashoffset:0;stroke-opacity:1" />
    <polyline
       transform="matrix(0.0044793,0,0,-0.00441518,0.03600474,0.4872169)"
       points="155.32,45.375 153.94,48.273 150.85,39.77 153.81,41.156 155.32,45.375 158.54,44.242 156.96,39.957 153.81,41.156 "
       id="polyline53"
       style="font-style:normal;font-variant:normal;font-weight:normal;font-stretch:normal;letter-spacing:normal;word-spacing:normal;text-anchor:start;fill:none;fill-opacity:1;stroke:#000000;stroke-width:0.47242999;stroke-linecap:butt;stroke-linejoin:miter;stroke-miterlimit:10.43299961;stroke-dasharray:none;stroke-dashoffset:0;stroke-opacity:1" />
    <polygon
       transform="matrix(0.0044793,0,0,-0.00441518,0.03600474,0.4872169)"
       points="91.449,102.82 91.449,0.77734 170.82,0.77734 170.82,102.82 "
       id="polygon55"
       style="font-style:normal;font-variant:normal;font-weight:normal;font-stretch:normal;letter-spacing:normal;word-spacing:normal;text-anchor:start;fill:none;fill-opacity:1;stroke:#000000;stroke-width:0.47242999;stroke-linecap:butt;stroke-linejoin:miter;stroke-miterlimit:10.43299961;stroke-dasharray:none;stroke-dashoffset:0;stroke-opacity:1" />
    <text
       y="0.43181741"
       x="0.075761102"
       transform="scale(1.0072348,0.99281718)"
       font-size="20px"
       id="text57"
       style="font-style:normal;font-variant:normal;font-weight:normal;font-stretch:normal;font-size:0.04201821px;line-height:0%;font-family:serif;-inkscape-font-specification:serif;letter-spacing:normal;word-spacing:normal;text-anchor:start;fill:#000000;fill-opacity:1;stroke:none;stroke-width:0.00210091;stroke-linecap:butt;stroke-linejoin:miter;stroke-miterlimit:10.43299961;stroke-dasharray:none;stroke-dashoffset:0;stroke-opacity:1">Virtual Room</text>
    <text
       y="0.43181741"
       x="0.46250868"
       transform="scale(1.0072348,0.99281718)"
       font-size="20px"
       id="text59"
       style="font-style:normal;font-variant:normal;font-weight:normal;font-stretch:normal;font-size:0.04201821px;line-height:0%;font-family:serif;-inkscape-font-specification:serif;letter-spacing:normal;word-spacing:normal;text-anchor:start;fill:#000000;fill-opacity:1;stroke:none;stroke-width:0.00210091;stroke-linecap:butt;stroke-linejoin:miter;stroke-miterlimit:10.43299961;stroke-dasharray:none;stroke-dashoffset:0;stroke-opacity:1">Physical Room</text>
    <polyline
       transform="matrix(0.0044793,0,0,-0.00441518,0.03600474,0.4872169)"
       points="37.215,50.98 37.281,51.043 37.469,51.172 37.785,51.297 38.223,51.484 38.793,51.738 39.547,51.926 40.555,52.18 41.941,52.43 43.77,52.684 45.215,52.809 46.539,52.934 47.547,53.059 48.305,53.121 48.68,53.121 48.934,53.121 49.121,53.121 49.246,53.121 49.625,53.121 50.191,53.188 51.199,53.188 52.773,53.25 54.855,53.25 57.375,53.312 59.516,53.312 61.531,53.375 63.422,53.375 64.996,53.438 66.316,53.438 67.391,53.438 68.207,53.5 68.965,53.5 69.656,53.562 70.285,53.562 71.043,53.625 71.859,53.625 72.934,53.625 74.254,53.562 75.766,53.562 77.594,53.5 79.547,53.375 81.625,53.25 84.395,52.996 86.477,52.809 87.859,52.617 88.617,52.555 88.996,52.555 89.121,52.617 89.184,52.555 89.434,52.492 89.938,52.367 90.82,51.988 92.082,51.422 93.594,50.602 94.98,49.66 96.051,48.777 96.742,48.02 97.121,47.391 97.246,46.887 97.309,46.383 97.309,45.941 97.434,45.438 97.688,44.871 98.191,44.18 98.883,43.359 99.766,42.602 100.52,42.098 101.15,41.723 101.72,41.531 102.22,41.406 102.6,41.406 102.98,41.469 103.29,41.594 103.61,41.723 103.86,41.91 104.05,42.035 104.18,42.098 104.24,42.164 104.3,42.227 "
       id="polyline61"
       style="font-style:normal;font-variant:normal;font-weight:normal;font-stretch:normal;letter-spacing:normal;word-spacing:normal;text-anchor:start;fill:none;fill-opacity:1;stroke:#000000;stroke-width:0.47242999;stroke-linecap:butt;stroke-linejoin:bevel;stroke-miterlimit:10.43299961;stroke-dasharray:none;stroke-dashoffset:0;stroke-opacity:1" />
    <polyline
       transform="matrix(0.0044793,0,0,-0.00441518,0.03600474,0.4872169)"
       points="42.129,54.699 42.066,54.633 42.004,54.57 41.941,54.508 41.941,54.445 41.879,54.445 41.879,54.383 41.879,54.32 41.816,54.258 41.816,54.195 41.816,54.129 41.879,54.066 41.941,54.004 42.004,54.004 42.066,54.004 42.191,53.941 42.32,53.941 42.508,53.941 42.695,53.941 42.949,53.941 43.199,54.004 43.516,54.066 43.895,54.066 44.273,54.129 44.711,54.258 45.215,54.32 45.785,54.445 47.105,54.762 48.43,55.012 49.562,55.328 50.508,55.516 51.199,55.641 51.703,55.77 52.082,55.832 52.398,55.832 52.711,55.895 53.152,56.02 53.848,56.211 54.789,56.461 56.113,56.84 57.879,57.406 60.02,58.098 62.539,58.98 64.617,59.738 66.633,60.43 68.461,61.121 69.973,61.625 71.23,62.066 72.176,62.383 72.934,62.633 73.5,62.762 73.941,62.887 74.316,63.012 74.758,63.137 75.199,63.266 75.828,63.453 76.586,63.77 77.656,64.211 79.043,64.84 80.742,65.656 82.82,66.602 85.152,67.738 87.672,69.059 90.004,70.32 92.145,71.516 94.035,72.648 95.672,73.719 96.996,74.602 98.004,75.422 98.82,76.176 99.387,76.809 99.766,77.375 100.02,77.879 100.27,78.32 100.52,78.824 100.77,79.328 101.21,79.832 101.78,80.398 102.6,81.027 103.67,81.719 105.06,82.477 106.82,83.297 108.84,84.176 111.17,85.059 113.69,85.816 116.46,86.508 119.11,87.074 121.5,87.453 123.64,87.703 125.4,87.832 126.85,87.895 128.05,87.895 129.12,87.832 130,87.703 130.82,87.578 131.57,87.453 132.4,87.262 133.34,87.074 134.35,86.887 135.6,86.695 136.99,86.445 138.63,86.191 140.33,85.879 142.09,85.5 143.8,85.059 145.12,84.617 146.19,84.113 146.95,83.547 147.57,83.043 147.95,82.477 148.21,81.91 148.27,81.344 148.21,80.773 148.08,80.27 147.83,79.703 147.57,79.137 147.26,78.633 146.88,78.129 146.57,77.688 146.19,77.246 145.94,76.934 145.68,76.617 145.5,76.43 145.37,76.305 145.31,76.238 145.25,76.176 "
       id="polyline63"
       style="font-style:normal;font-variant:normal;font-weight:normal;font-stretch:normal;letter-spacing:normal;word-spacing:normal;text-anchor:start;fill:none;fill-opacity:1;stroke:#000000;stroke-width:0.47242999;stroke-linecap:butt;stroke-linejoin:bevel;stroke-miterlimit:10.43299961;stroke-dasharray:none;stroke-dashoffset:0;stroke-opacity:1" />
    <polyline
       transform="matrix(0.0044793,0,0,-0.00441518,0.03600474,0.4872169)"
       points="38.855,54.824 38.855,54.762 38.855,54.699 38.855,54.633 38.918,54.508 38.98,54.32 39.105,54.129 39.23,54.004 39.422,53.816 39.734,53.691 40.113,53.562 40.68,53.438 41.562,53.312 42.191,53.312 42.445,53.312 42.57,53.312 43.012,53.375 44.082,53.5 45.973,53.691 47.422,53.879 48.742,54.004 49.688,54.129 50.32,54.195 50.695,54.258 50.949,54.32 51.262,54.383 51.703,54.445 52.523,54.57 53.848,54.699 55.734,55.012 58.066,55.328 59.957,55.578 61.656,55.832 63.105,56.02 64.238,56.211 64.996,56.273 65.562,56.336 66.004,56.398 66.316,56.398 66.633,56.461 67.074,56.523 67.703,56.586 68.586,56.715 69.844,56.902 71.547,57.219 73.562,57.531 75.891,57.973 77.973,58.352 79.926,58.73 81.562,58.98 82.949,59.168 84.02,59.297 84.836,59.359 85.469,59.297 85.906,59.297 86.348,59.168 86.727,59.168 87.168,59.105 87.734,59.168 88.555,59.297 89.562,59.547 90.82,59.988 92.395,60.617 94.16,61.375 96.051,62.32 98.066,63.516 99.828,64.715 101.21,65.848 102.29,66.793 102.98,67.672 103.42,68.367 103.73,69.059 103.98,69.688 104.18,70.258 104.43,70.887 104.81,71.578 105.31,72.398 106.13,73.344 107.14,74.289 108.39,75.359 109.72,76.305 110.85,76.996 111.8,77.5 112.68,77.879 113.43,78.066 114.07,78.191 114.57,78.191 115.01,78.066 115.45,77.941 115.77,77.75 116.08,77.5 116.33,77.312 116.59,77.059 116.77,76.871 116.9,76.68 116.96,76.617 117.02,76.492 "
       id="polyline65"
       style="font-style:normal;font-variant:normal;font-weight:normal;font-stretch:normal;letter-spacing:normal;word-spacing:normal;text-anchor:start;fill:none;fill-opacity:1;stroke:#000000;stroke-width:0.47242999;stroke-linecap:butt;stroke-linejoin:bevel;stroke-miterlimit:10.43299961;stroke-dasharray:none;stroke-dashoffset:0;stroke-opacity:1" />
    <polyline
       transform="matrix(0.0044793,0,0,-0.00441518,0.03600474,0.4872169)"
       points="43.703,50.98 43.641,51.043 43.578,51.105 43.516,51.105 43.516,51.172 43.453,51.234 43.391,51.297 43.328,51.297 43.328,51.359 43.266,51.422 43.266,51.484 43.266,51.547 43.266,51.609 43.328,51.676 43.328,51.738 43.391,51.801 43.516,51.863 43.641,51.926 43.832,51.988 44.02,52.051 44.711,52.18 45.215,52.242 45.469,52.305 45.594,52.305 45.719,52.305 46.223,52.305 47.23,52.305 48.934,52.305 50.254,52.305 51.453,52.305 52.27,52.305 52.84,52.305 53.09,52.305 53.277,52.305 53.469,52.305 53.848,52.305 54.602,52.305 55.797,52.242 57.625,52.18 59.895,52.051 61.781,51.926 63.484,51.863 64.996,51.801 66.191,51.738 67.137,51.738 67.828,51.801 68.398,51.863 68.836,51.926 69.34,51.988 69.844,52.051 70.602,52.051 71.609,51.926 72.867,51.801 74.508,51.484 76.398,51.105 78.477,50.539 80.492,49.91 82.316,49.281 83.766,48.777 84.898,48.336 85.656,48.082 86.223,47.895 86.602,47.707 86.914,47.645 87.23,47.516 87.547,47.328 88.051,47.012 88.742,46.57 89.625,45.879 90.758,44.996 92.082,43.863 93.465,42.477 94.602,41.156 95.547,39.895 96.176,38.699 96.555,37.691 96.617,36.809 96.426,36.051 96.113,35.359 95.672,34.793 95.168,34.227 94.664,33.723 94.285,33.156 94.098,32.523 94.098,31.832 94.477,31.078 95.23,30.195 96.492,29.25 98.254,28.367 100.52,27.484 102.47,26.98 104.43,26.539 106.44,26.227 108.27,26.035 110.03,25.91 111.54,25.848 112.93,25.848 114.19,25.91 115.32,26.035 116.33,26.164 117.28,26.289 118.22,26.477 119.17,26.668 120.11,26.855 121.18,27.043 122.32,27.234 123.64,27.359 125.15,27.551 126.79,27.738 128.68,27.863 130.76,27.988 133.02,28.117 135.35,28.305 137.69,28.43 140.9,28.684 143.6,28.871 145.68,29.062 147.2,29.188 148.21,29.25 148.77,29.25 149.09,29.25 149.28,29.25 149.4,29.25 149.59,29.25 149.97,29.312 150.54,29.5 151.42,29.691 152.55,30.07 154,30.508 155.45,31.078 156.9,31.77 158.03,32.461 158.79,33.094 159.29,33.531 159.54,33.91 159.6,34.227 159.6,34.477 159.54,34.73 159.54,35.043 159.6,35.422 159.67,35.926 159.86,36.555 160.11,37.312 160.36,38.133 160.49,39.012 160.43,39.77 160.17,40.336 159.92,40.84 159.54,41.219 159.16,41.531 158.79,41.848 158.41,42.035 158.09,42.227 157.91,42.289 157.84,42.352 "
       id="polyline67"
       style="font-style:normal;font-variant:normal;font-weight:normal;font-stretch:normal;letter-spacing:normal;word-spacing:normal;text-anchor:start;fill:none;fill-opacity:1;stroke:#000000;stroke-width:0.47242999;stroke-linecap:butt;stroke-linejoin:bevel;stroke-miterlimit:10.43299961;stroke-dasharray:none;stroke-dashoffset:0;stroke-opacity:1" />
    <path
       d="m 0.21320137,0.23180757 2.4636e-4,4.5476e-4 2.2397e-4,4.5918e-4 1.9708e-4,4.6359e-4 1.747e-4,4.6801e-4 1.4333e-4,4.7684e-4 1.2543e-4,4.7684e-4 9.406e-5,4.8126e-4 7.167e-5,4.8567e-4 4.927e-5,4.8567e-4 2.688e-5,4.8125e-4 v 4.8567e-4 l -2.688e-5,4.8125e-4 -4.479e-5,4.8126e-4 -7.167e-5,4.7684e-4 -8.959e-5,4.7242e-4 -1.1646e-4,4.6801e-4 -1.3886e-4,4.5918e-4 -1.6125e-4,4.5476e-4 -1.7917e-4,4.4594e-4 -2.0605e-4,4.4152e-4 -2.2397e-4,4.2827e-4 -2.4636e-4,4.1944e-4 -2.6876e-4,4.062e-4 -2.8667e-4,3.9736e-4 -3.0907e-4,3.7971e-4 -3.2699e-4,3.7087e-4 -3.4939e-4,3.5322e-4 -3.673e-4,3.3997e-4 -3.897e-4,3.223e-4 -4.0761e-4,3.0465e-4 -4.2554e-4,2.8699e-4 -4.4345e-4,2.6932e-4 c -0.004847,0.002759 -0.0110773,0.001121 -0.0138769,-0.003656 -0.0028,-0.004777 -0.00112,-0.0109187 0.003727,-0.0136782 0.004847,-0.002759 0.0110773,-0.001121 0.0138767,0.003656 z"
       id="path69"
       style="font-style:normal;font-variant:normal;font-weight:normal;font-stretch:normal;letter-spacing:normal;word-spacing:normal;text-anchor:start;fill:#ffffff;fill-opacity:1;stroke:#ffffff;stroke-width:0;stroke-linecap:butt;stroke-linejoin:bevel;stroke-miterlimit:10.43299961;stroke-dasharray:none;stroke-dashoffset:0;stroke-opacity:1"
       inkscape:connector-curvature="0" />
    <path
       d="m 0.21320137,0.23180757 2.4636e-4,4.5476e-4 2.2397e-4,4.5918e-4 1.9708e-4,4.6359e-4 1.747e-4,4.6801e-4 1.4333e-4,4.7684e-4 1.2543e-4,4.7684e-4 9.406e-5,4.8126e-4 7.167e-5,4.8567e-4 4.927e-5,4.8567e-4 2.688e-5,4.8125e-4 v 4.8567e-4 l -2.688e-5,4.8125e-4 -4.479e-5,4.8126e-4 -7.167e-5,4.7684e-4 -8.959e-5,4.7242e-4 -1.1646e-4,4.6801e-4 -1.3886e-4,4.5918e-4 -1.6125e-4,4.5476e-4 -1.7917e-4,4.4594e-4 -2.0605e-4,4.4152e-4 -2.2397e-4,4.2827e-4 -2.4636e-4,4.1944e-4 -2.6876e-4,4.062e-4 -2.8667e-4,3.9736e-4 -3.0907e-4,3.7971e-4 -3.2699e-4,3.7087e-4 -3.4939e-4,3.5322e-4 -3.673e-4,3.3997e-4 -3.897e-4,3.223e-4 -4.0761e-4,3.0465e-4 -4.2554e-4,2.8699e-4 -4.4345e-4,2.6932e-4 c -0.004847,0.002759 -0.0110773,0.001121 -0.0138769,-0.003656 -0.0028,-0.004777 -0.00112,-0.0109187 0.003727,-0.0136782 0.004847,-0.002759 0.0110773,-0.001121 0.0138767,0.003656 z"
       id="path71"
       style="font-style:normal;font-variant:normal;font-weight:normal;font-stretch:normal;letter-spacing:normal;word-spacing:normal;text-anchor:start;fill:none;fill-opacity:1;stroke:#000000;stroke-width:0.00210095;stroke-linecap:butt;stroke-linejoin:bevel;stroke-miterlimit:10.43299961;stroke-dasharray:none;stroke-dashoffset:0;stroke-opacity:1"
       inkscape:connector-curvature="0" />
    <path
       d="m 0.23859004,0.24183003 -2.7324e-4,4.371e-4 -2.9115e-4,4.1944e-4 -3.0907e-4,4.0178e-4 -3.3147e-4,3.8412e-4 -3.4043e-4,3.6205e-4 -3.6282e-4,3.4438e-4 -3.7178e-4,3.2231e-4 -3.897e-4,3.0465e-4 -4.0314e-4,2.8257e-4 -4.1209e-4,2.6049e-4 -4.2554e-4,2.4284e-4 -4.3449e-4,2.2076e-4 -4.4345e-4,2.031e-4 -4.5241e-4,1.766e-4 -4.6137e-4,1.5895e-4 -4.7032e-4,1.3246e-4 -4.7481e-4,1.1479e-4 -4.7929e-4,8.83e-5 -4.8376e-4,7.065e-5 -4.8376e-4,4.415e-5 -4.8825e-4,2.207e-5 h -4.9272e-4 l -4.9272e-4,-2.649e-5 -4.9273e-4,-4.856e-5 -4.8824e-4,-7.065e-5 -4.8824e-4,-9.713e-5 -4.8377e-4,-1.1921e-4 -4.8376e-4,-1.457e-4 -4.7929e-4,-1.6778e-4 -4.7032e-4,-1.9427e-4 -4.6585e-4,-2.2075e-4 -4.5689e-4,-2.4725e-4 c -0.004847,-0.002759 -0.006508,-0.008901 -0.003709,-0.0136782 0.0028,-0.004777 0.009026,-0.006415 0.0138724,-0.003656 0.004847,0.002759 0.006513,0.008901 0.003713,0.0136784 z"
       id="path73"
       style="font-style:normal;font-variant:normal;font-weight:normal;font-stretch:normal;letter-spacing:normal;word-spacing:normal;text-anchor:start;fill:#ffffff;fill-opacity:1;stroke:#ffffff;stroke-width:0;stroke-linecap:butt;stroke-linejoin:bevel;stroke-miterlimit:10.43299961;stroke-dasharray:none;stroke-dashoffset:0;stroke-opacity:1"
       inkscape:connector-curvature="0" />
    <path
       d="m 0.23859004,0.24183003 -2.7324e-4,4.371e-4 -2.9115e-4,4.1944e-4 -3.0907e-4,4.0178e-4 -3.3147e-4,3.8412e-4 -3.4043e-4,3.6205e-4 -3.6282e-4,3.4438e-4 -3.7178e-4,3.2231e-4 -3.897e-4,3.0465e-4 -4.0314e-4,2.8257e-4 -4.1209e-4,2.6049e-4 -4.2554e-4,2.4284e-4 -4.3449e-4,2.2076e-4 -4.4345e-4,2.031e-4 -4.5241e-4,1.766e-4 -4.6137e-4,1.5895e-4 -4.7032e-4,1.3246e-4 -4.7481e-4,1.1479e-4 -4.7929e-4,8.83e-5 -4.8376e-4,7.065e-5 -4.8376e-4,4.415e-5 -4.8825e-4,2.207e-5 h -4.9272e-4 l -4.9272e-4,-2.649e-5 -4.9273e-4,-4.856e-5 -4.8824e-4,-7.065e-5 -4.8824e-4,-9.713e-5 -4.8377e-4,-1.1921e-4 -4.8376e-4,-1.457e-4 -4.7929e-4,-1.6778e-4 -4.7032e-4,-1.9427e-4 -4.6585e-4,-2.2075e-4 -4.5689e-4,-2.4725e-4 c -0.004847,-0.002759 -0.006508,-0.008901 -0.003709,-0.0136782 0.0028,-0.004777 0.009026,-0.006415 0.0138724,-0.003656 0.004847,0.002759 0.006513,0.008901 0.003713,0.0136784 z"
       id="path75"
       style="font-style:normal;font-variant:normal;font-weight:normal;font-stretch:normal;letter-spacing:normal;word-spacing:normal;text-anchor:start;fill:none;fill-opacity:1;stroke:#000000;stroke-width:0.00210095;stroke-linecap:butt;stroke-linejoin:bevel;stroke-miterlimit:10.43299961;stroke-dasharray:none;stroke-dashoffset:0;stroke-opacity:1"
       inkscape:connector-curvature="0" />
    <path
       d="m 0.23760907,0.27654659 -4.8824e-4,-1.8544e-4 -4.7033e-4,-2.1193e-4 -4.5241e-4,-2.2959e-4 -4.3897e-4,-2.5166e-4 -4.2553e-4,-2.6933e-4 -4.0314e-4,-2.914e-4 -3.897e-4,-3.0465e-4 -3.7178e-4,-3.2672e-4 -3.5386e-4,-3.3997e-4 -3.3147e-4,-3.5763e-4 -3.1803e-4,-3.6646e-4 -2.9563e-4,-3.8412e-4 -2.7772e-4,-3.9737e-4 -2.5532e-4,-4.1061e-4 -2.374e-4,-4.1944e-4 -2.1949e-4,-4.3269e-4 -1.9261e-4,-4.4152e-4 -1.7469e-4,-4.5035e-4 -1.523e-4,-4.5917e-4 -1.299e-4,-4.636e-4 -1.075e-4,-4.7242e-4 -8.511e-5,-4.7684e-4 -5.823e-5,-4.8126e-4 -4.031e-5,-4.8125e-4 -1.344e-5,-4.9009e-4 1.344e-5,-4.9008e-4 3.583e-5,-4.945e-4 5.823e-5,-4.9009e-4 8.511e-5,-4.945e-4 1.1198e-4,-4.9008e-4 1.3886e-4,-4.9009e-4 1.6573e-4,-4.8567e-4 c 0.001908,-0.005192 0.007772,-0.007863 0.0130213,-0.005987 0.005263,0.001881 0.007978,0.007643 0.006069,0.0128349 -0.001908,0.005175 -0.007767,0.007863 -0.0130164,0.005983 z"
       id="path77"
       style="font-style:normal;font-variant:normal;font-weight:normal;font-stretch:normal;letter-spacing:normal;word-spacing:normal;text-anchor:start;fill:#ffffff;fill-opacity:1;stroke:#ffffff;stroke-width:0;stroke-linecap:butt;stroke-linejoin:bevel;stroke-miterlimit:10.43299961;stroke-dasharray:none;stroke-dashoffset:0;stroke-opacity:1"
       inkscape:connector-curvature="0" />
    <path
       d="m 0.23760907,0.27654659 -4.8824e-4,-1.8544e-4 -4.7033e-4,-2.1193e-4 -4.5241e-4,-2.2959e-4 -4.3897e-4,-2.5166e-4 -4.2553e-4,-2.6933e-4 -4.0314e-4,-2.914e-4 -3.897e-4,-3.0465e-4 -3.7178e-4,-3.2672e-4 -3.5386e-4,-3.3997e-4 -3.3147e-4,-3.5763e-4 -3.1803e-4,-3.6646e-4 -2.9563e-4,-3.8412e-4 -2.7772e-4,-3.9737e-4 -2.5532e-4,-4.1061e-4 -2.374e-4,-4.1944e-4 -2.1949e-4,-4.3269e-4 -1.9261e-4,-4.4152e-4 -1.7469e-4,-4.5035e-4 -1.523e-4,-4.5917e-4 -1.299e-4,-4.636e-4 -1.075e-4,-4.7242e-4 -8.511e-5,-4.7684e-4 -5.823e-5,-4.8126e-4 -4.031e-5,-4.8125e-4 -1.344e-5,-4.9009e-4 1.344e-5,-4.9008e-4 3.583e-5,-4.945e-4 5.823e-5,-4.9009e-4 8.511e-5,-4.945e-4 1.1198e-4,-4.9008e-4 1.3886e-4,-4.9009e-4 1.6573e-4,-4.8567e-4 c 0.001908,-0.005192 0.007772,-0.007863 0.0130213,-0.005987 0.005263,0.001881 0.007978,0.007643 0.006069,0.0128349 -0.001908,0.005175 -0.007767,0.007863 -0.0130164,0.005983 z"
       id="path79"
       style="font-style:normal;font-variant:normal;font-weight:normal;font-stretch:normal;letter-spacing:normal;word-spacing:normal;text-anchor:start;fill:none;fill-opacity:1;stroke:#000000;stroke-width:0.00210095;stroke-linecap:butt;stroke-linejoin:bevel;stroke-miterlimit:10.43299961;stroke-dasharray:none;stroke-dashoffset:0;stroke-opacity:1"
       inkscape:connector-curvature="0" />
    <path
       d="m 0.18992693,0.25772909 4.972e-4,-1.6336e-4 4.9272e-4,-1.3246e-4 5.0168e-4,-1.1479e-4 4.9721e-4,-8.389e-5 5.0168e-4,-5.74e-5 4.972e-4,-3.532e-5 4.972e-4,-1.325e-5 4.972e-4,1.325e-5 4.9273e-4,3.974e-5 4.8824e-4,5.739e-5 4.8376e-4,8.389e-5 4.7929e-4,1.0597e-4 4.7033e-4,1.2804e-4 4.6584e-4,1.5011e-4 4.5241e-4,1.722e-4 4.4793e-4,1.9426e-4 4.3897e-4,2.1193e-4 4.2554e-4,2.3401e-4 4.1657e-4,2.5166e-4 4.0314e-4,2.7374e-4 3.897e-4,2.914e-4 3.7626e-4,3.1348e-4 3.5834e-4,3.2673e-4 3.4939e-4,3.4879e-4 3.2699e-4,3.6646e-4 3.1355e-4,3.8413e-4 2.9115e-4,3.9736e-4 2.7324e-4,4.1944e-4 2.5532e-4,4.3269e-4 2.374e-4,4.4593e-4 2.1053e-4,4.636e-4 1.9261e-4,4.8125e-4 c 0.001904,0.005175 -8.2419e-4,0.0109496 -0.006074,0.0128305 -0.005268,0.001881 -0.0111087,-8.0798e-4 -0.0130168,-0.005983 -0.001908,-0.005192 8.0628e-4,-0.0109541 0.006069,-0.0128345 z"
       id="path81"
       style="font-style:normal;font-variant:normal;font-weight:normal;font-stretch:normal;letter-spacing:normal;word-spacing:normal;text-anchor:start;fill:#ffffff;fill-opacity:1;stroke:#ffffff;stroke-width:0;stroke-linecap:butt;stroke-linejoin:bevel;stroke-miterlimit:10.43299961;stroke-dasharray:none;stroke-dashoffset:0;stroke-opacity:1"
       inkscape:connector-curvature="0" />
    <path
       d="m 0.18992693,0.25772909 4.972e-4,-1.6336e-4 4.9272e-4,-1.3246e-4 5.0168e-4,-1.1479e-4 4.9721e-4,-8.389e-5 5.0168e-4,-5.74e-5 4.972e-4,-3.532e-5 4.972e-4,-1.325e-5 4.972e-4,1.325e-5 4.9273e-4,3.974e-5 4.8824e-4,5.739e-5 4.8376e-4,8.389e-5 4.7929e-4,1.0597e-4 4.7033e-4,1.2804e-4 4.6584e-4,1.5011e-4 4.5241e-4,1.722e-4 4.4793e-4,1.9426e-4 4.3897e-4,2.1193e-4 4.2554e-4,2.3401e-4 4.1657e-4,2.5166e-4 4.0314e-4,2.7374e-4 3.897e-4,2.914e-4 3.7626e-4,3.1348e-4 3.5834e-4,3.2673e-4 3.4939e-4,3.4879e-4 3.2699e-4,3.6646e-4 3.1355e-4,3.8413e-4 2.9115e-4,3.9736e-4 2.7324e-4,4.1944e-4 2.5532e-4,4.3269e-4 2.374e-4,4.4593e-4 2.1053e-4,4.636e-4 1.9261e-4,4.8125e-4 c 0.001904,0.005175 -8.2419e-4,0.0109496 -0.006074,0.0128305 -0.005268,0.001881 -0.0111087,-8.0798e-4 -0.0130168,-0.005983 -0.001908,-0.005192 8.0628e-4,-0.0109541 0.006069,-0.0128345 z"
       id="path83"
       style="font-style:normal;font-variant:normal;font-weight:normal;font-stretch:normal;letter-spacing:normal;word-spacing:normal;text-anchor:start;fill:none;fill-opacity:1;stroke:#000000;stroke-width:0.00210095;stroke-linecap:butt;stroke-linejoin:bevel;stroke-miterlimit:10.43299961;stroke-dasharray:none;stroke-dashoffset:0;stroke-opacity:1"
       inkscape:connector-curvature="0" />
    <line
       x1="0.18633901"
       y1="0.23570617"
       x2="0.21258771"
       y2="0.22068572"
       id="line85"
       style="font-style:normal;font-variant:normal;font-weight:normal;font-stretch:normal;letter-spacing:normal;word-spacing:normal;text-anchor:start;fill:none;fill-opacity:1;stroke:#000000;stroke-width:0.00210095;stroke-linecap:butt;stroke-linejoin:miter;stroke-miterlimit:10.43299961;stroke-dasharray:none;stroke-dashoffset:0;stroke-opacity:1" />
    <line
       x1="0.22189569"
       y1="0.22068572"
       x2="0.24813992"
       y2="0.23570617"
       id="line87"
       style="font-style:normal;font-variant:normal;font-weight:normal;font-stretch:normal;letter-spacing:normal;word-spacing:normal;text-anchor:start;fill:none;fill-opacity:1;stroke:#000000;stroke-width:0.00210095;stroke-linecap:butt;stroke-linejoin:miter;stroke-miterlimit:10.43299961;stroke-dasharray:none;stroke-dashoffset:0;stroke-opacity:1" />
    <line
       x1="0.25575471"
       y1="0.2562809"
       x2="0.245309"
       y2="0.28465286"
       id="line89"
       style="font-style:normal;font-variant:normal;font-weight:normal;font-stretch:normal;letter-spacing:normal;word-spacing:normal;text-anchor:start;fill:none;fill-opacity:1;stroke:#000000;stroke-width:0.00210095;stroke-linecap:butt;stroke-linejoin:miter;stroke-miterlimit:10.43299961;stroke-dasharray:none;stroke-dashoffset:0;stroke-opacity:1" />
    <line
       x1="0.18887877"
       y1="0.28465286"
       x2="0.17845096"
       y2="0.2562809"
       id="line91"
       style="font-style:normal;font-variant:normal;font-weight:normal;font-stretch:normal;letter-spacing:normal;word-spacing:normal;text-anchor:start;fill:none;fill-opacity:1;stroke:#000000;stroke-width:0.00210095;stroke-linecap:butt;stroke-linejoin:miter;stroke-miterlimit:10.43299961;stroke-dasharray:none;stroke-dashoffset:0;stroke-opacity:1" />
  </g>
</svg>
